<mxfile host="app.diagrams.net" agent="Mozilla/5.0 (Windows NT 10.0; Win64; x64) AppleWebKit/537.36 (KHTML, like Gecko) Chrome/139.0.0.0 Safari/537.36 Edg/139.0.0.0" version="28.1.1">
  <diagram name="Página-1" id="bTb7ZLQW3xxquBlu1H-1">
    <mxGraphModel dx="1358" dy="708" grid="1" gridSize="10" guides="1" tooltips="1" connect="1" arrows="1" fold="1" page="1" pageScale="1" pageWidth="827" pageHeight="1169" math="0" shadow="0">
      <root>
        <mxCell id="0" />
        <mxCell id="1" parent="0" />
        <mxCell id="HIZnbvHgLTLS44aRGRzm-2" style="edgeStyle=orthogonalEdgeStyle;rounded=0;orthogonalLoop=1;jettySize=auto;html=1;" edge="1" parent="1" source="HIZnbvHgLTLS44aRGRzm-1">
          <mxGeometry relative="1" as="geometry">
            <mxPoint x="400" y="165" as="targetPoint" />
          </mxGeometry>
        </mxCell>
        <mxCell id="HIZnbvHgLTLS44aRGRzm-1" value="Começo" style="rounded=1;whiteSpace=wrap;html=1;" vertex="1" parent="1">
          <mxGeometry x="340" y="45" width="120" height="60" as="geometry" />
        </mxCell>
        <mxCell id="HIZnbvHgLTLS44aRGRzm-9" style="edgeStyle=orthogonalEdgeStyle;rounded=0;orthogonalLoop=1;jettySize=auto;html=1;" edge="1" parent="1" source="HIZnbvHgLTLS44aRGRzm-10">
          <mxGeometry relative="1" as="geometry">
            <mxPoint x="400" y="285" as="targetPoint" />
          </mxGeometry>
        </mxCell>
        <mxCell id="HIZnbvHgLTLS44aRGRzm-10" value="Gerar uma palavra aleatória" style="rounded=1;whiteSpace=wrap;html=1;" vertex="1" parent="1">
          <mxGeometry x="340" y="165" width="120" height="60" as="geometry" />
        </mxCell>
        <mxCell id="HIZnbvHgLTLS44aRGRzm-13" style="edgeStyle=orthogonalEdgeStyle;rounded=0;orthogonalLoop=1;jettySize=auto;html=1;" edge="1" parent="1" source="HIZnbvHgLTLS44aRGRzm-11" target="HIZnbvHgLTLS44aRGRzm-12">
          <mxGeometry relative="1" as="geometry" />
        </mxCell>
        <mxCell id="HIZnbvHgLTLS44aRGRzm-11" value="Pegar quantidade de letrar" style="rounded=1;whiteSpace=wrap;html=1;" vertex="1" parent="1">
          <mxGeometry x="340" y="285" width="120" height="60" as="geometry" />
        </mxCell>
        <mxCell id="HIZnbvHgLTLS44aRGRzm-14" style="edgeStyle=orthogonalEdgeStyle;rounded=0;orthogonalLoop=1;jettySize=auto;html=1;" edge="1" parent="1" source="HIZnbvHgLTLS44aRGRzm-12" target="HIZnbvHgLTLS44aRGRzm-15">
          <mxGeometry relative="1" as="geometry">
            <mxPoint x="400" y="595" as="targetPoint" />
          </mxGeometry>
        </mxCell>
        <mxCell id="HIZnbvHgLTLS44aRGRzm-12" value="Perguntar ao jogador qual letra ele quer escolher" style="rounded=1;whiteSpace=wrap;html=1;" vertex="1" parent="1">
          <mxGeometry x="340" y="405" width="120" height="60" as="geometry" />
        </mxCell>
        <mxCell id="HIZnbvHgLTLS44aRGRzm-16" style="edgeStyle=orthogonalEdgeStyle;rounded=0;orthogonalLoop=1;jettySize=auto;html=1;" edge="1" parent="1" source="HIZnbvHgLTLS44aRGRzm-15">
          <mxGeometry relative="1" as="geometry">
            <mxPoint x="520" y="675" as="targetPoint" />
          </mxGeometry>
        </mxCell>
        <mxCell id="HIZnbvHgLTLS44aRGRzm-18" style="edgeStyle=orthogonalEdgeStyle;rounded=0;orthogonalLoop=1;jettySize=auto;html=1;" edge="1" parent="1" source="HIZnbvHgLTLS44aRGRzm-15" target="HIZnbvHgLTLS44aRGRzm-21">
          <mxGeometry relative="1" as="geometry">
            <mxPoint x="280" y="675" as="targetPoint" />
          </mxGeometry>
        </mxCell>
        <mxCell id="HIZnbvHgLTLS44aRGRzm-15" value="Acertou a letra?" style="rhombus;whiteSpace=wrap;html=1;" vertex="1" parent="1">
          <mxGeometry x="340" y="525" width="120" height="140" as="geometry" />
        </mxCell>
        <mxCell id="HIZnbvHgLTLS44aRGRzm-19" value="sim" style="text;html=1;align=center;verticalAlign=middle;whiteSpace=wrap;rounded=0;" vertex="1" parent="1">
          <mxGeometry x="220" y="615" width="60" height="30" as="geometry" />
        </mxCell>
        <mxCell id="HIZnbvHgLTLS44aRGRzm-20" value="não" style="text;html=1;align=center;verticalAlign=middle;whiteSpace=wrap;rounded=0;" vertex="1" parent="1">
          <mxGeometry x="530" y="615" width="60" height="30" as="geometry" />
        </mxCell>
        <mxCell id="HIZnbvHgLTLS44aRGRzm-37" style="edgeStyle=orthogonalEdgeStyle;rounded=0;orthogonalLoop=1;jettySize=auto;html=1;entryX=0.5;entryY=0;entryDx=0;entryDy=0;" edge="1" parent="1" source="HIZnbvHgLTLS44aRGRzm-21" target="HIZnbvHgLTLS44aRGRzm-31">
          <mxGeometry relative="1" as="geometry" />
        </mxCell>
        <mxCell id="HIZnbvHgLTLS44aRGRzm-21" value="Apareça a letra que ele acertou" style="rounded=1;whiteSpace=wrap;html=1;" vertex="1" parent="1">
          <mxGeometry x="200" y="675" width="120" height="60" as="geometry" />
        </mxCell>
        <mxCell id="HIZnbvHgLTLS44aRGRzm-36" style="edgeStyle=orthogonalEdgeStyle;rounded=0;orthogonalLoop=1;jettySize=auto;html=1;entryX=0.5;entryY=0;entryDx=0;entryDy=0;" edge="1" parent="1" source="HIZnbvHgLTLS44aRGRzm-22" target="HIZnbvHgLTLS44aRGRzm-30">
          <mxGeometry relative="1" as="geometry" />
        </mxCell>
        <mxCell id="HIZnbvHgLTLS44aRGRzm-22" value="Perca uma vida" style="rounded=1;whiteSpace=wrap;html=1;" vertex="1" parent="1">
          <mxGeometry x="460" y="675" width="120" height="60" as="geometry" />
        </mxCell>
        <mxCell id="HIZnbvHgLTLS44aRGRzm-39" style="edgeStyle=orthogonalEdgeStyle;rounded=0;orthogonalLoop=1;jettySize=auto;html=1;" edge="1" parent="1" source="HIZnbvHgLTLS44aRGRzm-30">
          <mxGeometry relative="1" as="geometry">
            <mxPoint x="400" y="960" as="targetPoint" />
            <Array as="points">
              <mxPoint x="520" y="920" />
              <mxPoint x="401" y="920" />
              <mxPoint x="401" y="960" />
            </Array>
          </mxGeometry>
        </mxCell>
        <mxCell id="HIZnbvHgLTLS44aRGRzm-44" style="edgeStyle=orthogonalEdgeStyle;rounded=0;orthogonalLoop=1;jettySize=auto;html=1;entryX=1;entryY=0.5;entryDx=0;entryDy=0;exitX=1;exitY=0.5;exitDx=0;exitDy=0;" edge="1" parent="1" source="HIZnbvHgLTLS44aRGRzm-30" target="HIZnbvHgLTLS44aRGRzm-12">
          <mxGeometry relative="1" as="geometry">
            <Array as="points">
              <mxPoint x="680" y="835" />
              <mxPoint x="680" y="435" />
            </Array>
          </mxGeometry>
        </mxCell>
        <mxCell id="HIZnbvHgLTLS44aRGRzm-30" value="Acabou as vidas?" style="rhombus;whiteSpace=wrap;html=1;" vertex="1" parent="1">
          <mxGeometry x="460" y="785" width="120" height="100" as="geometry" />
        </mxCell>
        <mxCell id="HIZnbvHgLTLS44aRGRzm-38" style="edgeStyle=orthogonalEdgeStyle;rounded=0;orthogonalLoop=1;jettySize=auto;html=1;" edge="1" parent="1" source="HIZnbvHgLTLS44aRGRzm-31" target="HIZnbvHgLTLS44aRGRzm-42">
          <mxGeometry relative="1" as="geometry">
            <mxPoint x="400" y="960" as="targetPoint" />
            <Array as="points">
              <mxPoint x="260" y="920" />
              <mxPoint x="401" y="920" />
              <mxPoint x="401" y="960" />
            </Array>
          </mxGeometry>
        </mxCell>
        <mxCell id="HIZnbvHgLTLS44aRGRzm-43" style="edgeStyle=orthogonalEdgeStyle;rounded=0;orthogonalLoop=1;jettySize=auto;html=1;entryX=0;entryY=0.5;entryDx=0;entryDy=0;" edge="1" parent="1" source="HIZnbvHgLTLS44aRGRzm-31" target="HIZnbvHgLTLS44aRGRzm-12">
          <mxGeometry relative="1" as="geometry">
            <Array as="points">
              <mxPoint x="120" y="835" />
              <mxPoint x="120" y="435" />
            </Array>
          </mxGeometry>
        </mxCell>
        <mxCell id="HIZnbvHgLTLS44aRGRzm-31" value="Acertou todas?" style="rhombus;whiteSpace=wrap;html=1;" vertex="1" parent="1">
          <mxGeometry x="200" y="785" width="120" height="100" as="geometry" />
        </mxCell>
        <mxCell id="HIZnbvHgLTLS44aRGRzm-40" value="sim&lt;span style=&quot;color: rgba(0, 0, 0, 0); font-family: monospace; font-size: 0px; text-align: start; text-wrap-mode: nowrap;&quot;&gt;%3CmxGraphModel%3E%3Croot%3E%3CmxCell%20id%3D%220%22%2F%3E%3CmxCell%20id%3D%221%22%20parent%3D%220%22%2F%3E%3CmxCell%20id%3D%222%22%20value%3D%22Acabou%20as%20vidas%3F%22%20style%3D%22rhombus%3BwhiteSpace%3Dwrap%3Bhtml%3D1%3B%22%20vertex%3D%221%22%20parent%3D%221%22%3E%3CmxGeometry%20x%3D%22460%22%20y%3D%22950%22%20width%3D%22120%22%20height%3D%22100%22%20as%3D%22geometry%22%2F%3E%3C%2FmxCell%3E%3C%2Froot%3E%3C%2FmxGraphModel%3E&lt;/span&gt;" style="text;html=1;align=center;verticalAlign=middle;whiteSpace=wrap;rounded=0;" vertex="1" parent="1">
          <mxGeometry x="260" y="885" width="60" height="30" as="geometry" />
        </mxCell>
        <mxCell id="HIZnbvHgLTLS44aRGRzm-41" value="sim&lt;span style=&quot;color: rgba(0, 0, 0, 0); font-family: monospace; font-size: 0px; text-align: start; text-wrap-mode: nowrap;&quot;&gt;%3CmxGraphModel%3E%3Croot%3E%3CmxCell%20id%3D%220%22%2F%3E%3CmxCell%20id%3D%221%22%20parent%3D%220%22%2F%3E%3CmxCell%20id%3D%222%22%20value%3D%22Acabou%20as%20vidas%3F%22%20style%3D%22rhombus%3BwhiteSpace%3Dwrap%3Bhtml%3D1%3B%22%20vertex%3D%221%22%20parent%3D%221%22%3E%3CmxGeometry%20x%3D%22460%22%20y%3D%22950%22%20width%3D%22120%22%20height%3D%22100%22%20as%3D%22geometry%22%2F%3E%3C%2FmxCell%3E%3C%2Froot%3E%3C%2FmxGraphModel%3E&lt;/span&gt;" style="text;html=1;align=center;verticalAlign=middle;whiteSpace=wrap;rounded=0;" vertex="1" parent="1">
          <mxGeometry x="460" y="890" width="60" height="30" as="geometry" />
        </mxCell>
        <mxCell id="HIZnbvHgLTLS44aRGRzm-42" value="Game Over" style="rounded=1;whiteSpace=wrap;html=1;" vertex="1" parent="1">
          <mxGeometry x="340" y="950" width="120" height="60" as="geometry" />
        </mxCell>
        <mxCell id="HIZnbvHgLTLS44aRGRzm-45" value="não" style="text;html=1;align=center;verticalAlign=middle;whiteSpace=wrap;rounded=0;" vertex="1" parent="1">
          <mxGeometry x="580" y="840" width="60" height="30" as="geometry" />
        </mxCell>
        <mxCell id="HIZnbvHgLTLS44aRGRzm-46" value="não" style="text;html=1;align=center;verticalAlign=middle;whiteSpace=wrap;rounded=0;" vertex="1" parent="1">
          <mxGeometry x="140" y="840" width="60" height="30" as="geometry" />
        </mxCell>
      </root>
    </mxGraphModel>
  </diagram>
</mxfile>
